<?xml version="1.0" standalone="no"?>
<!DOCTYPE svg PUBLIC "-//W3C//DTD SVG 20010904//EN"
 "http://www.w3.org/TR/2001/REC-SVG-20010904/DTD/svg10.dtd">
<svg version="1.0" xmlns="http://www.w3.org/2000/svg"
 width="260.000000pt" height="260.000000pt" viewBox="0 0 260.000000 260.000000"
 preserveAspectRatio="xMidYMid meet">
<metadata>
Created by potrace 1.11, written by Peter Selinger 2001-2013
</metadata>
<g transform="translate(0.000000,260.000000) scale(0.100000,-0.100000)"
fill="#000000" stroke="none">
<path d="M1593 2514 c-6 -16 -43 -20 -43 -4 0 15 -26 12 -40 -5 -7 -8 -25 -15
-41 -15 -15 0 -31 -4 -34 -10 -3 -5 -15 -10 -26 -10 -10 0 -19 -4 -19 -10 0
-5 -11 -10 -25 -10 -14 0 -25 -5 -25 -10 0 -6 -14 -19 -31 -29 -17 -10 -30
-21 -30 -25 2 -16 0 -18 -13 -7 -11 9 -20 10 -36 1 -16 -8 -30 -8 -55 0 -70
23 -226 15 -210 -10 3 -5 -8 -11 -23 -15 -34 -7 -112 -77 -112 -99 0 -8 -12
-22 -27 -30 -16 -8 -23 -15 -16 -16 19 0 -6 -60 -25 -60 -13 0 -14 -2 -4 -8
19 -13 5 -38 -31 -56 l-32 -17 39 7 c38 7 38 6 25 -17 -7 -13 -13 -26 -14 -29
0 -3 -7 -15 -16 -27 -11 -15 -19 -19 -29 -12 -26 16 -34 10 -12 -10 22 -18 29
-41 14 -41 -4 0 -13 -13 -20 -29 -7 -16 -22 -31 -33 -34 -21 -6 -21 -34 0 -30
6 2 11 -2 11 -7 0 -6 -4 -10 -10 -10 -5 0 -7 -6 -4 -14 3 -9 -10 -20 -40 -32
-25 -11 -46 -22 -46 -26 0 -5 -12 -8 -27 -9 -16 0 -22 -3 -15 -6 14 -6 16 -23
2 -23 -18 0 -48 -33 -43 -46 3 -8 1 -14 -5 -14 -16 0 -21 -39 -6 -54 8 -8 14
-19 14 -25 0 -13 37 -52 47 -50 21 3 34 -2 28 -11 -4 -6 -16 -8 -27 -4 -14 4
-18 2 -14 -5 4 -6 2 -11 -4 -11 -14 0 -40 25 -40 39 0 6 -7 11 -17 11 -9 0
-13 -3 -10 -7 4 -3 2 -12 -4 -20 -9 -10 -7 -13 10 -13 12 0 24 -7 28 -15 3
-10 16 -15 32 -14 14 1 39 1 54 1 24 -2 27 -5 22 -22 -4 -13 -2 -20 7 -20 21
-1 -32 -40 -54 -40 -11 0 -16 -5 -13 -10 4 -6 15 -8 25 -5 11 4 20 -1 24 -12
4 -10 2 -19 -3 -21 -6 -2 -11 -8 -11 -13 0 -4 7 -6 15 -3 9 4 15 0 15 -9 0 -8
-13 -20 -30 -26 -34 -11 -40 -22 -10 -16 13 2 20 -2 20 -11 0 -8 6 -14 13 -14
8 0 7 -3 -3 -10 -12 -8 -12 -11 3 -28 9 -10 14 -22 10 -26 -13 -13 -10 -56 3
-56 8 0 11 -6 7 -16 -8 -22 -48 -14 -48 10 0 28 -22 31 -36 4 -7 -13 -11 -25
-9 -28 1 -3 -7 -9 -19 -15 -25 -12 -28 -25 -3 -23 32 2 62 -2 62 -9 0 -5 -12
-9 -26 -10 -15 0 -30 -6 -34 -12 -3 -7 -15 -9 -24 -5 -16 6 -17 4 -8 -13 14
-25 1 -45 -32 -46 -27 -2 -37 -17 -11 -17 8 0 15 -5 15 -11 0 -6 -13 -8 -35
-5 -27 5 -35 3 -35 -10 0 -8 4 -13 9 -9 5 3 12 1 16 -5 3 -5 -6 -15 -22 -21
-26 -10 -27 -12 -8 -19 11 -5 14 -9 8 -9 -18 -1 -16 -21 2 -21 8 0 15 7 15 15
0 8 8 15 18 14 10 0 12 -3 5 -6 -28 -11 -10 -23 33 -23 25 0 43 -4 40 -9 -3
-5 -23 -9 -43 -9 -39 -1 -104 -20 -70 -21 17 -1 25 -21 8 -21 -5 0 -16 -3 -25
-6 -11 -4 -16 0 -16 14 0 26 -16 37 -24 17 -3 -8 -1 -15 4 -15 6 0 10 -5 10
-11 0 -5 -4 -8 -9 -4 -5 3 -12 1 -16 -5 -3 -5 -1 -10 4 -10 6 0 11 -5 11 -11
0 -6 -9 -8 -22 -4 l-23 7 22 -16 c20 -15 21 -18 6 -47 -9 -19 -20 -28 -29 -25
-8 3 -14 0 -14 -5 0 -6 9 -9 20 -6 11 3 20 1 20 -4 0 -5 7 -9 16 -9 8 0 13 -4
10 -9 -8 -12 21 -34 34 -26 5 3 10 2 10 -3 0 -23 -214 -37 -263 -17 -10 4 -17
3 -17 -5 0 -6 -8 -10 -17 -9 -77 7 -83 -22 -7 -33 27 -4 64 -3 84 3 22 7 49 7
75 1 23 -5 51 -5 62 -1 18 6 21 5 16 -8 -5 -12 -20 -14 -89 -10 -47 3 -84 1
-84 -4 0 -12 187 -11 195 1 8 13 55 13 55 0 0 -5 -12 -10 -27 -11 -27 0 -27
-1 -5 -9 12 -5 28 -7 36 -4 11 4 13 0 9 -15 -4 -16 -9 -19 -23 -11 -28 15 -67
12 -74 -5 -3 -8 0 -15 7 -16 7 -1 1 -4 -13 -9 -23 -7 -24 -8 -5 -15 11 -4 33
-13 49 -20 16 -7 36 -10 45 -7 11 5 6 8 -16 10 -35 4 -51 28 -30 49 11 11 16
11 32 -2 19 -14 19 -14 -4 -15 -33 0 -21 -10 19 -15 32 -4 55 -15 32 -15 -7 0
-12 -5 -12 -10 0 -6 8 -10 17 -8 11 2 19 -5 21 -17 2 -11 0 -16 -5 -10 -11 14
-43 18 -43 5 0 -7 -6 -8 -18 -1 -20 11 -104 3 -97 -9 3 -5 -1 -11 -7 -14 -7
-3 -4 -4 7 -1 82 18 93 17 107 -4 7 -12 20 -21 28 -22 10 0 11 -2 3 -6 -7 -2
-13 -9 -13 -15 0 -6 6 -8 14 -5 19 8 28 -3 16 -18 -7 -9 -6 -16 5 -25 13 -11
14 -10 9 5 -6 15 -5 16 15 4 11 -8 21 -17 21 -20 0 -4 9 -9 20 -12 11 -3 20
-13 20 -22 0 -13 -6 -16 -27 -11 -33 6 -8 -5 42 -21 20 -6 29 -15 29 -27 -1
-9 1 -15 4 -12 3 3 11 -3 19 -14 16 -22 38 -27 30 -7 -8 21 6 37 23 27 10 -7
11 -10 3 -10 -7 0 -13 -7 -13 -15 0 -8 7 -15 16 -15 8 0 13 -4 10 -8 -3 -5 7
-15 22 -22 15 -7 34 -16 42 -20 8 -4 15 -16 15 -26 0 -27 85 -30 92 -3 4 15 9
16 23 9 27 -14 29 -13 24 16 -4 23 -3 24 16 14 12 -6 20 -19 19 -28 -3 -32 1
-42 15 -42 8 0 17 6 20 13 5 9 7 9 12 0 4 -9 36 -13 108 -13 90 0 107 3 130
21 21 16 35 20 61 15 24 -5 32 -11 28 -21 -4 -11 2 -15 20 -15 14 0 28 6 30
13 4 9 6 9 6 0 1 -9 22 -13 70 -13 67 0 101 13 64 24 -15 4 -15 5 2 4 63 -1
76 3 85 27 11 29 11 29 45 13 23 -10 28 -10 36 5 6 9 16 17 24 17 23 0 65 22
59 31 -3 5 0 9 7 9 7 0 20 6 28 14 20 17 79 37 84 28 2 -4 3 -2 1 4 -1 6 15
30 36 53 28 31 50 45 81 52 51 12 65 3 21 -13 -18 -7 -32 -20 -34 -33 -2 -11
-9 -19 -15 -18 -6 1 -16 -3 -21 -10 -8 -9 -3 -12 17 -11 18 0 40 14 67 43 38
41 43 43 100 45 57 1 60 2 56 23 -5 28 -10 29 -29 5 -11 -13 -13 -14 -12 -2 3
29 -1 40 -14 40 -7 0 -13 9 -14 19 -1 13 7 21 25 24 33 7 48 -6 27 -23 -20
-17 -19 -28 3 -26 25 2 45 33 39 63 -3 19 1 32 17 44 16 14 17 18 6 19 -9 0
-21 -5 -28 -12 -9 -9 -12 -9 -12 0 0 7 5 12 10 12 6 0 10 12 10 26 0 24 -2 25
-17 13 -15 -13 -15 -11 1 13 9 14 23 29 31 32 8 3 11 13 8 25 -4 15 -1 21 11
21 10 0 14 5 11 11 -5 7 -15 3 -29 -10 -26 -25 -45 -29 -21 -5 9 9 14 22 12
28 -3 7 3 23 13 36 13 17 22 21 36 15 11 -4 43 -7 72 -5 46 1 54 -1 59 -19 9
-33 32 -34 28 -1 -2 16 0 32 6 36 8 5 85 -14 139 -34 8 -3 19 -4 25 -3 5 1 15
-6 22 -15 7 -10 13 -13 13 -7 0 6 3 18 6 27 5 13 -1 16 -25 16 -31 0 -78 34
-61 45 5 3 12 -1 17 -8 9 -16 73 -29 73 -15 0 4 -6 8 -12 8 -10 0 -10 3 0 9 8
5 12 16 10 26 -3 15 -5 15 -28 -5 -14 -12 -26 -17 -28 -11 -2 6 -28 11 -57 11
-38 0 -54 4 -59 15 -3 8 -13 15 -23 15 -15 0 -16 -2 -3 -10 24 -15 8 -18 -50
-10 -30 4 -66 3 -79 -2 -14 -5 -30 -7 -38 -4 -7 3 -13 -1 -13 -10 0 -8 -11
-26 -23 -40 l-24 -25 5 30 c4 27 2 30 -14 24 -20 -8 -21 -8 49 80 16 20 26 41
22 47 -5 7 -11 5 -20 -7 -12 -17 -14 -16 -25 8 -11 24 -14 25 -43 15 -18 -6
-38 -15 -46 -20 -10 -6 -16 -6 -19 2 -2 6 -2 13 0 14 6 6 -27 36 -34 31 -4 -2
-5 3 -2 11 3 9 12 16 19 16 7 0 15 7 19 15 3 8 1 15 -4 15 -6 0 -10 -4 -10 -9
0 -5 -9 -7 -19 -4 -14 3 -23 20 -31 54 -7 27 -16 51 -21 54 -4 3 -5 13 -2 22
4 10 2 14 -5 10 -6 -4 -13 -21 -17 -37 -4 -16 -11 -33 -16 -36 -6 -3 -14 -17
-19 -30 -5 -13 -17 -24 -26 -24 -13 0 -15 12 -13 82 5 125 19 183 52 208 19
15 27 31 27 52 0 23 4 29 15 24 9 -3 15 0 15 10 0 10 -6 14 -15 10 -8 -3 -15
-1 -15 4 0 6 7 10 15 10 8 0 15 7 15 16 0 15 23 44 34 44 3 0 7 -12 7 -27 2
-24 2 -25 6 -5 5 24 50 52 71 45 7 -3 11 0 10 5 -2 5 24 33 56 62 33 29 61 60
62 69 2 9 6 28 10 43 8 33 -23 81 -67 103 -16 9 -66 21 -111 27 -92 12 -99 15
-78 29 13 8 13 11 -1 19 -11 6 -19 30 -24 67 -3 32 -9 67 -11 79 -5 18 0 22
36 28 23 3 38 11 35 16 -3 6 1 10 10 10 12 0 15 -5 11 -16 -6 -17 21 -51 32
-40 3 4 0 11 -7 15 -9 6 -11 18 -7 34 6 25 5 26 -31 20 -62 -10 -65 -9 -83 27
-23 44 -36 105 -22 96 6 -3 14 -1 17 5 4 6 -2 13 -13 16 -14 3 -22 17 -27 41
-4 21 -11 42 -15 47 -5 6 -23 49 -40 97 -17 47 -40 94 -51 104 -10 9 -19 22
-19 28 0 17 -56 47 -73 40 -9 -3 -21 4 -30 16 -13 18 -19 20 -36 11 -16 -9
-21 -9 -21 2 0 18 -40 19 -47 1z m-518 -895 c112 -18 357 -22 526 -9 148 11
202 14 235 11 6 -1 11 -15 12 -31 0 -20 -3 -28 -10 -24 -8 5 -9 1 -5 -10 4
-10 7 -22 7 -27 0 -6 5 -7 10 -4 6 3 10 -1 10 -9 0 -8 -6 -19 -13 -23 -20 -12
-28 -53 -11 -53 17 0 19 -40 2 -40 -8 0 -5 -5 4 -11 14 -8 17 -20 13 -62 -3
-29 -8 -62 -10 -74 -3 -13 -1 -23 5 -23 5 0 10 -5 10 -11 0 -5 -4 -7 -10 -4
-5 3 -10 2 -10 -4 0 -5 4 -12 9 -15 11 -7 2 -46 -10 -46 -8 0 -13 23 -10 43 1
5 -2 6 -7 3 -5 -3 -9 -21 -10 -41 -1 -33 0 -35 19 -25 19 11 20 9 14 -32 -4
-24 -7 -54 -7 -66 0 -18 -5 -23 -17 -19 -10 2 -18 -1 -19 -7 -3 -39 -28 -136
-34 -136 -5 0 -8 -11 -8 -25 0 -14 -4 -25 -10 -25 -5 0 -9 -3 -8 -7 2 -13 -41
-103 -57 -119 -8 -9 -19 -12 -25 -9 -6 3 -12 0 -15 -7 -3 -8 -14 -14 -24 -15
-33 -3 -66 -45 -63 -81 2 -23 -1 -32 -11 -32 -8 0 -18 7 -21 16 -3 9 -11 12
-18 8 -8 -5 -9 -2 -5 9 3 10 2 17 -4 17 -6 0 -7 5 -4 10 3 6 2 10 -4 10 -6 0
-14 -12 -17 -28 -8 -31 -30 -51 -59 -52 -11 0 -28 -7 -39 -15 -13 -10 -24 -11
-37 -4 -12 6 -19 6 -19 0 0 -5 6 -11 13 -14 8 -3 6 -10 -8 -23 -11 -11 -29
-39 -40 -64 l-20 -44 -6 29 c-6 28 -7 29 -14 8 -6 -18 -11 -21 -26 -12 -13 7
-26 6 -41 -2 -16 -8 -23 -9 -26 -1 -2 6 -10 8 -18 5 -11 -4 -14 4 -14 33 0 20
-3 34 -7 31 -3 -4 -12 1 -19 11 -12 15 -13 15 -14 -8 l0 -25 -15 29 c-11 20
-12 32 -5 41 11 14 -11 45 -32 45 -5 0 -8 7 -5 15 5 11 0 13 -25 8 -22 -4 -29
-3 -24 5 4 7 2 12 -5 12 -7 0 -9 3 -6 7 4 3 2 12 -4 20 -9 10 -8 13 2 14 8 0
-4 7 -25 15 -27 10 -43 11 -51 4 -9 -8 -14 -6 -18 5 -5 12 0 14 27 10 30 -3
35 -1 41 22 3 14 4 28 1 30 -8 8 -27 -8 -21 -17 9 -15 -12 -20 -24 -6 -8 10
-9 16 -1 21 16 10 12 28 -5 22 -8 -4 -17 -1 -21 5 -4 7 -12 2 -21 -13 -14 -24
-14 -24 -10 9 4 37 -12 52 -53 52 -7 0 -7 6 0 19 8 16 6 22 -7 30 -10 6 -12
11 -5 11 6 0 12 5 12 10 0 7 -6 7 -19 0 -12 -6 -22 -6 -25 -1 -3 5 1 12 10 15
9 4 14 9 11 12 -3 4 1 13 9 21 8 9 12 18 9 21 -3 4 -10 0 -16 -8 -7 -12 -9
-11 -7 5 4 55 -2 96 -14 89 -10 -6 -10 -4 0 7 19 20 15 56 -7 62 -13 3 -18 0
-15 -8 3 -7 -2 -15 -10 -18 -9 -4 -16 -2 -16 3 0 6 -5 10 -11 10 -6 0 -8 -9
-4 -20 4 -14 1 -22 -10 -26 -21 -8 -32 3 -17 18 17 17 15 38 -3 38 -8 0 -12 6
-9 14 3 8 0 17 -5 21 -13 7 -5 25 11 25 5 0 8 -7 4 -15 -5 -15 22 -50 32 -40
4 3 0 10 -8 15 -10 7 -11 10 -2 10 6 0 12 10 11 23 0 21 -1 21 -9 2 -8 -18 -9
-17 -9 8 -1 15 4 27 10 27 6 0 9 6 6 14 -3 8 0 20 8 26 10 8 17 6 27 -9 8 -12
17 -18 21 -15 6 6 -29 44 -41 44 -4 0 -8 10 -9 21 -2 17 1 19 10 10 27 -27 46
0 24 35 -4 7 0 15 10 18 12 5 14 9 5 18 -20 20 -14 47 13 54 19 5 24 11 20 24
-3 9 -1 30 6 46 l11 29 19 -24 c10 -13 19 -18 19 -13 0 6 -5 14 -10 17 -16 10
-2 25 23 25 18 0 19 2 7 10 -8 5 -12 10 -8 10 3 0 13 3 22 6 11 4 16 0 16 -12
0 -15 2 -16 9 -5 5 7 14 10 20 7 6 -4 9 -12 6 -17 -3 -5 1 -6 10 -2 12 4 13 8
5 13 -9 5 -8 8 2 12 19 7 78 -11 78 -23 0 -6 4 -8 9 -5 5 3 12 -1 15 -10 4
-10 2 -13 -6 -8 -7 5 -8 3 -4 -5 5 -7 14 -10 22 -7 8 3 14 0 14 -7 0 -8 -25
-12 -85 -12 -47 0 -85 1 -85 3 0 1 12 8 28 14 20 8 23 12 10 15 -18 5 -73 -20
-84 -38 -4 -8 -3 -9 4 -5 7 4 13 -6 17 -28 5 -26 12 -34 26 -33 12 1 15 5 9
11 -6 6 -10 13 -10 17 0 10 108 34 116 26 3 -3 3 -20 -1 -37 -6 -27 -11 -31
-32 -27 -16 3 -21 1 -15 -5 6 -6 33 -12 61 -13 39 -3 56 0 69 13 10 10 26 16
37 15 11 -2 14 0 7 3 -7 3 -17 14 -22 24 -8 15 -6 17 13 12 21 -5 21 -4 6 14
-24 29 -31 44 -20 44 5 0 16 -6 23 -13 7 -7 21 -16 30 -20 28 -10 9 23 -40 71
-28 28 -41 49 -38 59 5 13 4 14 -8 4 -23 -20 -75 -4 -87 26 -5 13 -12 22 -17
19 -4 -2 -18 2 -32 10 -23 13 -21 14 30 8 30 -3 82 -10 115 -15z m-159 -21 c5
-8 2 -9 -9 -5 -10 3 -17 2 -17 -3 0 -6 5 -10 10 -10 6 0 10 -5 10 -10 0 -7 -7
-7 -21 0 -16 9 -18 14 -8 26 14 17 25 18 35 2z m-276 -408 c0 -5 -5 -10 -11
-10 -5 0 -7 5 -4 10 3 6 8 10 11 10 2 0 4 -4 4 -10z m-74 -162 c-3 -13 -5 -24
-5 -25 -1 -2 -10 5 -21 14 -19 16 -19 18 -3 25 29 11 33 9 29 -14z m141 -40
c-17 -10 -26 0 -20 22 5 19 6 19 18 3 10 -13 10 -20 2 -25z m-48 -8 c-7 -5
-18 -6 -24 -2 -6 4 -3 8 8 10 9 2 17 9 18 15 0 7 3 7 6 -2 3 -7 -1 -17 -8 -21z
m31 -55 c5 3 8 -4 7 -15 -1 -21 -22 -34 -39 -24 -5 3 -1 12 9 20 17 13 17 14
-5 20 -22 6 -22 7 -5 24 17 16 18 16 21 -7 2 -13 7 -21 12 -18z m-100 -49 c0
-3 -4 -8 -10 -11 -5 -3 -10 -1 -10 4 0 6 5 11 10 11 6 0 10 -2 10 -4z m110
-16 c4 7 7 -5 6 -26 -1 -21 -8 -40 -14 -42 -7 -2 -10 2 -6 12 3 9 1 23 -6 31
-6 8 -8 20 -4 27 6 9 9 9 12 -1 3 -10 6 -10 12 -1z m56 -35 c3 -13 4 -31 2
-40 -3 -14 -5 -14 -24 4 -15 13 -20 27 -17 45 6 30 30 24 39 -9z m-148 -19
c18 -48 15 -90 -8 -119 -11 -14 -20 -31 -19 -39 0 -7 4 -4 8 7 5 12 9 -16 10
-74 1 -52 3 -97 5 -99 3 -2 9 16 14 40 9 42 9 43 20 17 6 -15 8 -36 5 -47 -3
-14 1 -22 15 -26 22 -7 38 -49 21 -54 -14 -5 9 -32 27 -32 8 0 14 -4 14 -10 0
-5 -7 -10 -15 -10 -8 0 -15 5 -15 10 0 6 -4 10 -8 10 -11 0 -8 -58 3 -68 4 -4
5 1 2 10 -11 30 13 31 39 1 24 -28 32 -49 14 -38 -5 3 -10 2 -10 -2 0 -5 -9
-14 -20 -20 -16 -10 -18 -10 -14 1 3 7 -3 17 -13 20 -10 4 -19 2 -21 -3 -7
-20 -22 -11 -22 13 0 19 -4 23 -19 19 -24 -6 -34 29 -18 64 9 19 8 26 -3 33
-17 11 -33 -20 -24 -45 4 -8 1 -15 -5 -15 -6 0 -11 6 -11 13 0 8 -4 7 -10 -3
-7 -11 -10 -7 -10 17 0 26 -3 31 -16 26 -13 -5 -15 -2 -9 16 5 16 1 27 -12 36
-17 13 -17 14 0 15 19 0 24 26 5 32 -7 3 -9 12 -4 23 6 16 9 17 16 5 8 -12 10
-10 10 8 0 19 4 22 20 17 18 -6 17 -3 -6 22 -19 21 -24 34 -20 56 4 17 2 26
-4 22 -12 -8 -13 0 -1 23 5 9 14 35 21 57 7 22 18 43 24 47 6 5 1 8 -12 8 -14
0 -21 4 -17 11 4 6 9 8 12 5 6 -5 33 18 33 29 0 3 -5 3 -12 -1 -7 -4 -8 -3 -4
4 11 18 31 4 44 -32z m1558 -2 c-3 -7 -1 -16 4 -19 18 -11 10 -25 -15 -25 -25
0 -33 14 -15 25 6 3 10 15 10 26 0 12 4 17 11 14 6 -4 8 -13 5 -21z m44 -8 c0
-3 -4 -8 -10 -11 -5 -3 -10 -1 -10 4 0 6 5 11 10 11 6 0 10 -2 10 -4z m-1427
-31 c-7 -21 -13 -19 -13 6 0 11 4 18 10 14 5 -3 7 -12 3 -20z m-418 -5 c-3 -5
-13 -10 -21 -10 -8 0 -14 5 -14 10 0 6 9 10 21 10 11 0 17 -4 14 -10z m1719
-6 c20 -19 21 -58 2 -73 -12 -10 -14 -8 -11 14 2 19 -2 25 -11 21 -8 -3 -14
-1 -14 4 0 6 5 10 10 10 17 0 11 28 -7 33 -16 4 -16 5 -1 6 9 0 24 -6 32 -15z
m-231 -14 c6 -24 -3 -32 -23 -20 -11 7 -11 11 -1 24 17 20 18 20 24 -4z m31 4
c11 -4 13 -10 7 -18 -12 -15 -16 -95 -6 -120 6 -14 5 -17 -3 -12 -7 4 -12 1
-12 -8 0 -9 4 -16 9 -16 6 0 6 -12 0 -32 -5 -18 -9 -47 -9 -63 0 -17 -4 -35
-9 -40 -5 -6 -17 -35 -26 -65 -27 -84 -124 -210 -162 -210 -7 0 -13 -4 -13
-10 0 -15 -32 -28 -83 -35 -46 -6 -63 4 -35 21 8 5 2 12 -17 20 -26 10 -34 9
-67 -13 -26 -18 -46 -24 -65 -20 -15 3 -37 -1 -50 -10 -14 -9 -23 -11 -23 -5
0 7 -19 11 -46 10 -32 0 -42 -3 -33 -10 9 -6 -2 -7 -31 -2 -76 11 -85 13 -88
24 -2 5 -10 10 -18 10 -8 0 -14 8 -14 18 0 13 -2 14 -9 3 -7 -11 -15 -11 -45
0 -20 7 -36 17 -36 21 0 4 -9 8 -19 8 -11 0 -26 9 -33 19 -10 14 -18 17 -28
10 -8 -5 -19 -9 -25 -9 -5 1 -2 5 8 11 9 5 17 15 17 22 0 7 -4 6 -10 -3 -6
-10 -24 -15 -54 -14 -28 1 -43 -3 -39 -9 4 -6 0 -8 -11 -4 -10 4 -15 3 -11 -3
3 -6 0 -10 -9 -10 -8 0 -21 -3 -30 -6 -11 -4 -16 -1 -16 10 0 9 -7 16 -15 16
-24 0 -17 30 8 31 12 1 26 1 31 0 5 -1 6 5 3 13 -4 10 -1 13 9 9 7 -3 14 -9
14 -13 0 -5 11 -7 25 -5 15 1 29 -4 35 -14 5 -9 10 -11 10 -5 0 18 -28 37 -41
28 -9 -5 -10 -2 -6 9 3 8 -1 21 -9 27 -20 17 -18 37 5 43 21 5 41 -9 41 -30 0
-17 47 -47 79 -49 14 -1 18 0 9 3 -10 2 -18 9 -18 14 0 6 -5 7 -10 4 -6 -3
-10 0 -10 7 1 14 50 54 51 41 1 -12 7 -35 18 -68 9 -27 9 -26 6 15 -2 25 -4
48 -4 52 -1 4 -15 14 -31 23 -17 9 -30 20 -30 26 0 6 4 8 9 5 5 -4 11 -1 13 5
2 7 17 0 35 -15 17 -14 44 -28 60 -31 151 -26 313 -38 313 -24 0 5 9 9 20 9
11 0 20 4 20 9 0 5 11 11 25 13 17 4 25 1 25 -9 0 -8 -4 -12 -9 -9 -4 3 -17
-1 -27 -9 -18 -13 -18 -14 6 -9 38 8 70 26 64 35 -3 5 3 6 13 2 10 -3 15 -3
11 1 -4 5 -2 14 5 21 9 9 14 9 24 -1 14 -14 18 -38 5 -30 -4 2 -14 1 -22 -5
-13 -7 -12 -9 3 -9 25 0 21 -20 -5 -21 -13 0 -17 -3 -10 -6 6 -2 10 -8 7 -13
-3 -4 2 -10 10 -13 8 -4 12 -1 9 7 -6 16 23 42 57 49 14 4 31 18 38 33 6 15
14 25 16 22 3 -2 -4 -24 -16 -47 -28 -59 -18 -61 20 -4 18 27 30 38 26 25 -6
-19 -3 -23 10 -20 11 2 24 24 36 64 13 41 27 67 44 78 13 9 22 22 20 29 -6 17
23 53 34 41 5 -5 14 -26 21 -47 7 -21 14 -36 17 -33 3 3 -6 35 -21 71 -14 36
-26 78 -26 93 0 31 26 73 43 71 30 -4 39 2 34 21 -6 22 -5 23 17 14z m-94 -51
c0 -17 -18 -35 -29 -29 -8 5 -7 11 2 21 13 16 27 19 27 8z m-1435 -13 c3 -5 1
-10 -4 -10 -6 0 -11 5 -11 10 0 6 2 10 4 10 3 0 8 -4 11 -10z m50 -18 c-8 -8
-25 10 -19 20 4 6 9 5 15 -3 4 -7 6 -15 4 -17z m242 -4 c-3 -8 -6 -5 -6 6 -1
11 2 17 5 13 3 -3 4 -12 1 -19z m1503 -53 c0 -2 -14 -11 -32 -19 -35 -18 -53
-12 -25 8 9 7 17 16 17 20 0 4 -13 -2 -29 -13 -16 -12 -33 -21 -37 -21 -5 0 2
7 14 16 14 10 21 22 17 31 -3 9 2 24 11 34 16 17 17 17 40 -17 13 -19 24 -37
24 -39z m-1786 34 c-8 -14 -24 -10 -24 6 0 9 6 12 15 9 8 -4 12 -10 9 -15z
m1386 -49 c-6 -10 -17 -23 -26 -28 -9 -5 -16 -13 -17 -18 -2 -12 -30 -44 -39
-44 -11 0 3 32 24 54 10 11 18 28 18 38 0 13 8 18 25 18 22 0 24 -3 15 -20z
m-1220 -15 c0 -8 -4 -15 -9 -15 -13 0 -22 16 -14 24 11 11 23 6 23 -9z m-170
-14 c-25 -9 -47 -13 -49 -8 -5 14 15 23 56 24 l38 1 -45 -17z m1745 -32 c4 -6
-1 -17 -11 -25 -11 -9 -14 -13 -7 -10 16 9 43 -4 43 -20 0 -7 -11 -21 -25 -30
-14 -9 -25 -23 -25 -30 0 -8 -4 -14 -10 -14 -17 0 -11 32 7 46 10 7 15 16 10
20 -4 4 -13 2 -19 -4 -19 -19 -33 -14 -15 6 10 11 13 27 10 45 -4 22 -2 27 15
27 12 0 24 -5 27 -11z m-435 -51 c0 6 5 12 10 12 6 0 4 -13 -5 -30 -9 -16 -18
-30 -21 -30 -3 0 -2 5 1 10 3 6 2 10 -3 10 -6 0 -8 9 -5 21 4 16 8 17 14 7 7
-10 9 -10 9 0z m-100 -68 c0 -5 -2 -10 -4 -10 -2 0 -12 -3 -22 -7 -16 -6 -17
-5 -4 10 17 19 30 22 30 7z m85 0 c-3 -5 -10 -10 -16 -10 -5 0 -9 5 -9 10 0 6
7 10 16 10 8 0 12 -4 9 -10z m355 0 c0 -5 -4 -10 -10 -10 -5 0 -10 5 -10 10 0
6 5 10 10 10 6 0 10 -4 10 -10z m40 0 c0 -5 -4 -10 -10 -10 -5 0 -10 -6 -10
-14 0 -7 -7 -19 -15 -26 -13 -11 -13 -15 -3 -21 10 -7 9 -9 -4 -9 -9 0 -18 6
-21 13 -3 8 -9 6 -20 -8 -14 -18 -15 -17 -4 18 8 24 18 37 29 37 9 0 23 7 30
15 15 17 28 19 28 5z m70 6 c0 -3 -4 -8 -10 -11 -5 -3 -10 -1 -10 4 0 6 5 11
10 11 6 0 10 -2 10 -4z m-1313 -48 c-3 -8 -6 -5 -6 6 -1 11 2 17 5 13 3 -3 4
-12 1 -19z m113 -34 c0 -8 -4 -12 -10 -9 -5 3 -10 10 -10 16 0 5 5 9 10 9 6 0
10 -7 10 -16z m-460 -4 c0 -5 -10 -10 -22 -10 -19 0 -20 2 -8 10 19 13 30 13
30 0z m1620 6 c0 -3 -4 -8 -10 -11 -5 -3 -10 -1 -10 4 0 6 5 11 10 11 6 0 10
-2 10 -4z m-1280 -46 c0 -5 -2 -10 -4 -10 -3 0 -8 5 -11 10 -3 6 -1 10 4 10 6
0 11 -4 11 -10z m-245 -9 c3 -5 1 -12 -5 -16 -5 -3 -10 1 -10 9 0 18 6 21 15
7z m-28 -33 c-3 -7 -5 -2 -5 12 0 14 2 19 5 13 2 -7 2 -19 0 -25z m1311 14 c2
-7 -1 -12 -8 -12 -6 0 -9 4 -6 9 4 5 1 12 -4 14 -6 3 -5 4 2 3 6 -1 14 -8 16
-14z m-33 -12 c3 -5 1 -10 -4 -10 -6 0 -11 5 -11 10 0 6 2 10 4 10 3 0 8 -4
11 -10z m-1175 -44 c0 -3 -7 -3 -15 0 -8 4 -15 13 -15 21 0 12 2 12 15 -1 8
-8 15 -17 15 -20z m33 -2 c8 -8 -3 -34 -14 -34 -5 0 -9 9 -9 20 0 19 11 26 23
14z m-63 -34 c0 -5 -7 -10 -16 -10 -8 0 -12 5 -9 10 3 6 10 10 16 10 5 0 9 -4
9 -10z m125 -20 c7 0 16 6 19 13 3 6 3 1 0 -11 -5 -21 -3 -23 15 -17 14 4 23
1 27 -9 3 -9 12 -12 22 -9 9 4 14 3 10 -1 -3 -4 -23 -11 -42 -16 -28 -6 -36
-5 -36 6 0 8 -7 14 -15 14 -8 0 -15 4 -15 9 0 5 -2 15 -3 23 -2 7 -2 10 0 6 3
-5 11 -8 18 -8z m95 10 c0 -5 -5 -10 -11 -10 -5 0 -7 5 -4 10 3 6 8 10 11 10
2 0 4 -4 4 -10z m173 3 c4 -3 1 -13 -6 -21 -10 -13 -9 -15 6 -9 9 3 17 2 17
-4 0 -5 15 -9 33 -7 18 1 39 -2 46 -6 21 -14 -8 -26 -36 -15 -14 5 -32 5 -47
-2 -17 -8 -29 -8 -42 0 -11 6 -13 11 -6 11 18 0 15 18 -5 23 -15 4 -15 6 4 12
13 4 20 11 17 16 -6 10 9 12 19 2z m-98 -53 c3 -5 0 -10 -9 -10 -8 0 -23 -3
-33 -6 -16 -5 -16 -4 1 10 23 19 32 20 41 6z m620 0 c3 -5 -1 -10 -9 -10 -9 0
-16 5 -16 10 0 6 4 10 9 10 6 0 13 -4 16 -10z m-35 -10 c0 -5 -5 -10 -11 -10
-5 0 -7 5 -4 10 3 6 8 10 11 10 2 0 4 -4 4 -10z m-43 -6 c-3 -3 -12 -4 -19 -1
-8 3 -5 6 6 6 11 1 17 -2 13 -5z m-643 -31 c18 -10 18 -11 -7 -28 -19 -12 -31
-14 -44 -6 -17 9 -17 10 0 16 9 4 17 17 17 29 0 12 3 16 8 10 4 -6 16 -15 26
-21z m386 -33 c0 -5 -7 -7 -15 -4 -8 4 -15 8 -15 10 0 2 7 4 15 4 8 0 15 -4
15 -10z m250 -5 c0 -19 -30 -19 -54 -2 -17 12 -15 14 18 15 26 1 36 -3 36 -13z"/>
<path d="M1790 1605 c0 -10 29 -24 34 -17 3 6 -3 12 -14 15 -11 3 -20 4 -20 2z"/>
<path d="M1747 1543 c-4 -3 -2 -11 3 -18 5 -7 11 -26 13 -43 5 -43 17 -53 17
-15 0 34 -23 86 -33 76z"/>
<path d="M1717 1505 c3 -8 9 -12 14 -9 12 7 11 11 -5 17 -10 4 -13 1 -9 -8z"/>
<path d="M1477 1484 c2 -7 11 -10 19 -7 19 7 18 10 -5 16 -13 3 -18 1 -14 -9z"/>
<path d="M970 1469 c0 -5 5 -7 10 -4 6 3 10 8 10 11 0 2 -4 4 -10 4 -5 0 -10
-5 -10 -11z"/>
<path d="M1570 1395 l-35 -13 32 -1 c29 -1 32 -3 30 -33 -2 -26 3 -33 26 -41
22 -7 32 -5 48 9 17 16 22 16 29 4 15 -24 11 -1 -6 35 -9 19 -25 36 -39 39
-13 3 -29 8 -37 10 -7 3 -29 -2 -48 -9z"/>
<path d="M1430 1350 c-13 -9 -13 -10 0 -10 8 0 22 5 30 10 13 9 13 10 0 10 -8
0 -22 -5 -30 -10z"/>
<path d="M1147 1343 c-4 -3 -7 -11 -7 -17 0 -6 5 -5 12 2 6 6 9 14 7 17 -3 3
-9 2 -12 -2z"/>
<path d="M1172 1336 c-3 -30 -52 -107 -64 -100 -6 4 -6 -2 1 -15 10 -17 8 -27
-6 -52 -16 -26 -16 -31 -3 -40 13 -9 13 -10 -1 -6 -27 9 -49 -49 -36 -89 6
-16 13 -20 28 -17 13 4 36 -6 64 -26 59 -42 67 -39 13 5 -52 44 -58 52 -58 82
0 19 4 22 20 17 20 -6 25 8 21 57 -1 10 5 33 14 51 11 24 15 53 12 93 -2 33
-4 50 -5 40z"/>
<path d="M840 1293 c0 -5 10 -18 23 -29 l22 -19 -20 25 c-11 14 -21 27 -22 29
-2 2 -3 0 -3 -6z"/>
<path d="M885 1232 c-6 -4 -10 -21 -10 -39 0 -24 3 -29 13 -21 6 6 12 7 12 2
0 -4 5 -3 12 4 9 9 7 16 -6 31 -13 15 -14 20 -4 24 7 3 9 6 3 6 -5 0 -15 -3
-20 -7z"/>
<path d="M836 1205 c4 -8 8 -15 10 -15 2 0 4 7 4 15 0 8 -4 15 -10 15 -5 0 -7
-7 -4 -15z"/>
<path d="M885 1151 c-6 -11 33 -26 42 -17 4 3 1 6 -6 6 -7 0 -9 5 -6 10 3 6
-1 10 -9 10 -8 0 -17 -4 -21 -9z"/>
<path d="M706 1125 c4 -8 8 -15 10 -15 2 0 4 7 4 15 0 8 -4 15 -10 15 -5 0 -7
-7 -4 -15z"/>
<path d="M1005 1130 c3 -5 8 -10 11 -10 2 0 4 5 4 10 0 6 -5 10 -11 10 -5 0
-7 -4 -4 -10z"/>
<path d="M950 1119 c0 -5 5 -7 10 -4 6 3 10 8 10 11 0 2 -4 4 -10 4 -5 0 -10
-5 -10 -11z"/>
<path d="M971 1084 c0 -11 3 -14 6 -6 3 7 2 16 -1 19 -3 4 -6 -2 -5 -13z"/>
<path d="M1800 1059 c0 -5 5 -7 10 -4 6 3 10 8 10 11 0 2 -4 4 -10 4 -5 0 -10
-5 -10 -11z"/>
<path d="M766 1052 c-2 -4 -1 -14 3 -21 6 -10 10 -9 14 3 6 16 -8 32 -17 18z"/>
<path d="M1371 1024 c0 -11 3 -14 6 -6 3 7 2 16 -1 19 -3 4 -6 -2 -5 -13z"/>
<path d="M1256 975 c-16 -12 -17 -15 -4 -15 9 0 18 7 22 15 7 18 6 18 -18 0z"/>
<path d="M959 965 c-1 -5 -1 -13 -1 -16 1 -4 -7 -5 -17 -2 -13 3 -25 -4 -37
-24 -10 -15 -23 -31 -29 -35 -5 -4 -7 -8 -2 -8 4 0 1 -12 -6 -27 -20 -41 -16
-56 18 -68 17 -5 36 -18 44 -28 13 -18 14 -18 37 4 13 12 24 18 24 12 0 -18
59 -38 73 -24 6 6 20 11 30 11 16 0 17 3 7 15 -14 17 -35 21 -25 5 10 -16 -11
-11 -25 6 -8 8 -25 14 -39 12 -35 -4 -39 25 -7 53 18 15 23 26 16 34 -7 8 -5
12 6 12 10 0 14 -8 12 -25 -2 -15 3 -27 11 -30 11 -4 13 2 8 27 -4 19 -2 31 4
31 6 0 8 -4 4 -9 -3 -6 4 -8 15 -6 12 2 20 -1 20 -10 0 -9 -7 -12 -17 -9 -16
5 -16 4 0 -6 24 -15 31 -7 23 27 -5 19 -10 23 -15 14 -6 -9 -11 -10 -15 -3 -4
6 4 20 16 31 12 12 17 21 11 21 -6 0 -16 -7 -23 -15 -14 -17 -35 -21 -25 -5 3
6 1 10 -5 10 -6 0 -8 5 -4 12 4 7 3 8 -5 4 -6 -4 -9 -11 -6 -16 3 -5 0 -12 -6
-16 -7 -4 -10 -3 -7 2 3 5 -3 17 -13 26 -12 12 -19 13 -23 5 -3 -9 -8 -8 -15
3 -6 8 -11 11 -12 5z m31 -95 c0 -5 -5 -10 -11 -10 -5 0 -7 5 -4 10 3 6 8 10
11 10 2 0 4 -4 4 -10z"/>
<path d="M1130 966 c0 -2 7 -9 15 -16 12 -10 15 -10 15 4 0 9 -7 16 -15 16 -8
0 -15 -2 -15 -4z"/>
<path d="M1133 915 c0 -8 4 -12 9 -9 5 3 6 10 3 15 -9 13 -12 11 -12 -6z"/>
<path d="M1404 853 c2 -12 11 -32 22 -44 10 -12 18 -23 17 -25 -10 -15 0 -34
17 -34 11 0 20 -7 20 -15 0 -8 5 -15 11 -15 6 0 8 -8 5 -17 -7 -22 8 -50 18
-34 4 6 16 11 26 11 14 0 18 5 13 17 -5 12 -3 14 8 8 12 -8 12 -6 0 8 -15 19
-26 23 -15 5 4 -7 3 -8 -4 -4 -7 4 -12 22 -12 39 0 26 -4 33 -20 33 -11 0 -20
-5 -21 -11 0 -5 -4 0 -10 13 -5 13 -14 20 -20 17 -6 -4 -13 2 -16 14 -3 12
-10 21 -15 21 -6 0 -8 8 -6 18 3 11 0 19 -8 19 -7 0 -11 -10 -10 -24z"/>
<path d="M1355 850 c3 -6 -3 -14 -14 -18 -17 -6 -18 -9 -6 -26 13 -18 14 -17
21 8 3 14 10 26 16 26 5 0 6 5 3 10 -3 6 -11 10 -16 10 -6 0 -7 -5 -4 -10z"/>
<path d="M1308 843 c7 -3 16 -2 19 1 4 3 -2 6 -13 5 -11 0 -14 -3 -6 -6z"/>
<path d="M1382 810 c0 -14 2 -19 5 -12 2 6 2 18 0 25 -3 6 -5 1 -5 -13z"/>
<path d="M1480 826 c0 -2 7 -7 16 -10 8 -3 12 -2 9 4 -6 10 -25 14 -25 6z"/>
<path d="M1540 769 c0 -5 5 -7 10 -4 6 3 10 8 10 11 0 2 -4 4 -10 4 -5 0 -10
-5 -10 -11z"/>
<path d="M1190 758 c0 -15 8 -18 43 -16 40 1 40 1 7 5 -19 3 -38 10 -42 16 -5
8 -8 6 -8 -5z"/>
<path d="M1138 753 c7 -3 16 -2 19 1 4 3 -2 6 -13 5 -11 0 -14 -3 -6 -6z"/>
<path d="M1290 740 c8 -5 23 -10 33 -10 9 0 17 -4 17 -9 0 -6 16 -7 36 -4 29
5 40 1 65 -22 21 -22 29 -25 29 -13 0 9 3 18 8 21 4 2 1 2 -7 0 -8 -2 -23 3
-35 10 -21 14 -112 37 -144 37 -15 0 -15 -2 -2 -10z"/>
<path d="M1134 601 c3 -4 1 -22 -4 -40 -5 -19 -5 -31 1 -31 5 0 9 9 9 19 0 11
5 21 12 23 14 5 3 38 -12 38 -6 0 -9 -4 -6 -9z"/>
<path d="M1103 543 c-3 -10 -8 -22 -10 -28 -3 -5 3 -1 11 9 16 20 21 36 11 36
-3 0 -8 -8 -12 -17z"/>
<path d="M1205 420 c3 -5 8 -10 11 -10 2 0 4 5 4 10 0 6 -5 10 -11 10 -5 0 -7
-4 -4 -10z"/>
<path d="M730 830 c0 -5 5 -10 11 -10 5 0 7 5 4 10 -3 6 -8 10 -11 10 -2 0 -4
-4 -4 -10z"/>
<path d="M646 435 c4 -8 10 -15 15 -15 5 0 9 7 9 15 0 8 -7 15 -15 15 -9 0
-12 -6 -9 -15z"/>
<path d="M700 301 c0 -6 4 -12 8 -15 5 -3 9 1 9 9 0 8 -4 15 -9 15 -4 0 -8 -4
-8 -9z"/>
<path d="M1705 300 c-3 -5 -1 -10 4 -10 6 0 11 5 11 10 0 6 -2 10 -4 10 -3 0
-8 -4 -11 -10z"/>
<path d="M1693 268 c1 -6 -7 -16 -18 -22 -11 -6 -20 -18 -20 -26 0 -8 -22 -25
-49 -38 -58 -28 -55 -39 5 -18 24 9 50 16 58 16 8 0 20 8 27 18 16 20 19 82 4
82 -5 0 -9 -5 -7 -12z"/>
<path d="M1536 224 c-23 -23 -20 -30 4 -9 11 10 20 20 20 22 0 7 -9 2 -24 -13z"/>
<path d="M1155 150 c3 -5 8 -10 11 -10 2 0 4 5 4 10 0 6 -5 10 -11 10 -5 0 -7
-4 -4 -10z"/>
<path d="M2405 2000 c-3 -5 -3 -14 0 -20 3 -5 -1 -10 -9 -10 -9 0 -16 7 -16
15 0 18 -36 20 -44 3 -5 -10 -7 -10 -12 0 -7 16 -34 15 -70 -1 -16 -8 -40 -18
-54 -24 -20 -8 -8 -10 55 -8 44 1 140 3 213 4 l132 1 0 25 c0 19 -4 23 -17 18
-11 -4 -13 -8 -5 -11 7 -2 10 -8 6 -13 -8 -14 -24 -11 -24 6 0 16 -6 18 -61
19 -25 1 -35 -3 -32 -11 3 -7 1 -13 -5 -13 -5 0 -12 7 -16 15 -6 17 -32 20
-41 5z m30 -10 c3 -5 1 -10 -4 -10 -6 0 -11 5 -11 10 0 6 2 10 4 10 3 0 8 -4
11 -10z"/>
<path d="M443 1979 c-5 -5 -25 -11 -42 -11 -18 -1 -37 -9 -44 -18 -10 -14 -27
-22 -77 -35 -29 -7 -50 -18 -50 -25 0 -5 7 -6 17 -3 10 4 14 2 10 -4 -10 -17
45 -13 72 4 18 11 26 13 29 5 2 -7 8 -12 13 -12 4 0 6 7 3 15 -4 8 -1 15 5 15
6 0 10 6 9 12 -2 7 8 14 21 16 17 3 20 6 12 12 -8 5 0 10 23 14 20 4 34 11 31
17 -8 12 -18 12 -32 -2z m-113 -79 c0 -5 -9 -10 -21 -10 -11 0 -17 5 -14 10 3
6 13 10 21 10 8 0 14 -4 14 -10z"/>
<path d="M560 1980 c20 -13 60 -13 60 0 0 6 -17 10 -37 10 -28 0 -34 -3 -23
-10z"/>
<path d="M2095 1960 c3 -5 8 -10 11 -10 2 0 4 5 4 10 0 6 -5 10 -11 10 -5 0
-7 -4 -4 -10z"/>
<path d="M2137 1959 c7 -7 15 -10 18 -7 3 3 -2 9 -12 12 -14 6 -15 5 -6 -5z"/>
<path d="M465 1940 c16 -5 33 -6 37 -2 4 4 -9 9 -30 9 -37 2 -37 2 -7 -7z"/>
<path d="M410 1919 c0 -5 5 -7 10 -4 6 3 10 8 10 11 0 2 -4 4 -10 4 -5 0 -10
-5 -10 -11z"/>
<path d="M2173 1913 c15 -2 39 -2 55 0 15 2 2 4 -28 4 -30 0 -43 -2 -27 -4z"/>
<path d="M205 1862 c-29 -10 -65 -35 -65 -46 0 -14 -112 -115 -127 -116 -16 0
-18 -66 -3 -75 6 -4 10 -3 9 2 -10 43 118 177 187 195 24 7 44 18 44 25 0 11
-7 10 -31 -2 -17 -9 -33 -14 -36 -11 -3 3 6 10 21 15 14 6 26 13 26 16 0 3 -1
5 -2 4 -2 -1 -12 -4 -23 -7z"/>
<path d="M335 1850 c3 -5 0 -10 -7 -11 -7 0 -2 -5 11 -10 13 -5 26 -7 29 -4 3
3 0 5 -6 5 -7 0 -12 7 -12 15 0 8 -5 15 -11 15 -5 0 -7 -4 -4 -10z"/>
<path d="M2015 1850 c-3 -5 -1 -10 4 -10 6 0 11 5 11 10 0 6 -2 10 -4 10 -3 0
-8 -4 -11 -10z"/>
<path d="M278 1833 c7 -3 16 -2 19 1 4 3 -2 6 -13 5 -11 0 -14 -3 -6 -6z"/>
<path d="M2310 1829 c0 -11 43 -22 66 -17 10 2 -1 8 -24 14 -23 6 -42 7 -42 3z"/>
<path d="M508 1823 c7 -3 16 -2 19 1 4 3 -2 6 -13 5 -11 0 -14 -3 -6 -6z"/>
<path d="M2090 1820 c0 -5 5 -10 10 -10 6 0 10 5 10 10 0 6 -4 10 -10 10 -5 0
-10 -4 -10 -10z"/>
<path d="M268 1793 c-10 -3 -18 -8 -18 -13 0 -5 -7 -7 -15 -4 -8 4 -15 1 -15
-5 0 -6 -6 -8 -13 -5 -8 3 -18 -6 -25 -21 -10 -21 -9 -25 4 -25 11 0 13 -6 9
-19 -4 -15 0 -21 17 -24 l23 -4 -22 -8 c-32 -10 -19 -25 22 -25 24 0 39 7 50
22 9 14 11 24 5 26 -16 6 -12 22 5 22 8 0 15 9 15 19 0 11 4 22 9 26 6 3 8
-13 6 -37 -3 -36 -2 -39 7 -21 6 12 20 24 32 26 20 4 20 4 -1 6 -16 1 -23 7
-23 21 0 22 -45 49 -72 43z m-18 -83 c8 -5 11 -12 8 -16 -10 -9 -38 3 -38 16
0 12 10 13 30 0z"/>
<path d="M2300 1778 c0 -5 18 -8 40 -8 22 0 40 2 40 4 0 2 -18 6 -40 8 -22 2
-40 0 -40 -4z"/>
<path d="M2095 1761 c-10 -17 11 -21 31 -6 18 14 18 14 -3 15 -12 0 -24 -4
-28 -9z"/>
<path d="M2445 1700 c0 -19 4 -29 12 -26 6 3 14 -2 17 -10 3 -8 11 -14 18 -13
10 0 10 2 1 6 -7 2 -13 11 -13 19 0 8 -5 14 -10 14 -6 0 -10 7 -8 16 2 10 -1
19 -7 20 -5 2 -10 -10 -10 -26z"/>
<path d="M2518 1713 c18 -2 45 -2 60 0 15 2 0 4 -33 4 -33 0 -45 -2 -27 -4z"/>
<path d="M2503 1683 c9 -2 25 -2 35 0 9 3 1 5 -18 5 -19 0 -27 -2 -17 -5z"/>
<path d="M2526 1653 c-6 -14 -5 -15 5 -6 7 7 10 15 7 18 -3 3 -9 -2 -12 -12z"/>
<path d="M2495 1620 c-3 -5 -2 -10 4 -10 5 0 13 5 16 10 3 6 2 10 -4 10 -5 0
-13 -4 -16 -10z"/>
<path d="M278 1613 c6 -2 18 -2 25 0 6 3 1 5 -13 5 -14 0 -19 -2 -12 -5z"/>
<path d="M2560 1616 c0 -2 7 -6 15 -10 8 -3 15 -1 15 4 0 6 -7 10 -15 10 -8 0
-15 -2 -15 -4z"/>
<path d="M2470 1590 c8 -5 20 -10 25 -10 6 0 3 5 -5 10 -8 5 -19 10 -25 10 -5
0 -3 -5 5 -10z"/>
<path d="M2502 1555 c-6 -14 -10 -25 -9 -25 2 0 13 11 25 25 15 17 17 25 9 25
-8 0 -19 -11 -25 -25z"/>
<path d="M2578 1573 c7 -3 16 -2 19 1 4 3 -2 6 -13 5 -11 0 -14 -3 -6 -6z"/>
<path d="M2315 1541 c-3 -5 8 -9 24 -9 17 1 28 5 25 10 -7 11 -41 10 -49 -1z"/>
<path d="M390 1530 c0 -5 5 -10 11 -10 5 0 7 5 4 10 -3 6 -8 10 -11 10 -2 0
-4 -4 -4 -10z"/>
<path d="M2537 1519 c-6 -22 6 -25 22 -5 9 10 8 15 -3 19 -8 3 -16 -2 -19 -14z"/>
<path d="M2297 1500 c3 -11 9 -17 15 -14 5 3 4 12 -3 20 -16 19 -18 18 -12 -6z"/>
<path d="M2345 1444 c-18 -43 -18 -44 -5 -44 6 0 10 8 10 18 1 21 19 47 40 55
10 4 8 6 -7 6 -17 1 -27 -8 -38 -35z"/>
<path d="M465 1460 c3 -6 13 -10 21 -10 8 0 14 -4 14 -9 0 -13 63 -21 75 -9 7
6 5 9 -5 8 -33 -5 -51 0 -44 12 4 6 3 8 -4 4 -6 -3 -22 -2 -37 4 -17 7 -24 7
-20 0z"/>
<path d="M2530 1454 c0 -8 5 -12 10 -9 6 4 8 11 5 16 -9 14 -15 11 -15 -7z"/>
<path d="M2580 1463 c0 -5 5 -15 10 -23 8 -12 10 -11 10 8 0 12 -4 22 -10 22
-5 0 -10 -3 -10 -7z"/>
<path d="M2293 1425 c-10 -10 -9 -15 4 -19 20 -8 22 -5 14 15 -5 14 -8 15 -18
4z"/>
<path d="M2168 1402 c3 -13 7 -20 11 -15 3 6 14 14 25 20 17 9 16 11 -11 15
-27 4 -29 2 -25 -20z"/>
<path d="M458 1413 c7 -3 16 -2 19 1 4 3 -2 6 -13 5 -11 0 -14 -3 -6 -6z"/>
<path d="M2365 1410 c-3 -5 -2 -10 4 -10 5 0 13 5 16 10 3 6 2 10 -4 10 -5 0
-13 -4 -16 -10z"/>
<path d="M2134 1381 c4 -5 1 -11 -6 -13 -6 -2 -8 -10 -4 -16 12 -19 21 -14 22
13 1 14 -2 25 -8 25 -5 0 -7 -4 -4 -9z"/>
<path d="M2236 1373 c-9 -23 11 -33 64 -33 30 0 40 3 31 9 -8 5 -11 16 -8 24
4 10 -2 15 -19 15 -13 0 -21 -4 -18 -9 3 -5 -2 -9 -10 -9 -9 0 -16 5 -16 10 0
16 -17 11 -24 -7z"/>
<path d="M342 1366 c7 -7 19 -11 27 -8 11 4 10 7 -5 13 -29 12 -36 10 -22 -5z"/>
<path d="M500 1329 c0 -5 5 -7 10 -4 6 3 10 8 10 11 0 2 -4 4 -10 4 -5 0 -10
-5 -10 -11z"/>
<path d="M2537 1329 c7 -7 15 -10 18 -7 3 3 -2 9 -12 12 -14 6 -15 5 -6 -5z"/>
<path d="M2130 1310 c0 -5 4 -10 9 -10 6 0 13 5 16 10 3 6 -1 10 -9 10 -9 0
-16 -4 -16 -10z"/>
<path d="M2235 1310 c4 -6 11 -8 16 -5 14 9 11 15 -7 15 -8 0 -12 -5 -9 -10z"/>
<path d="M8 1303 c7 -3 16 -2 19 1 4 3 -2 6 -13 5 -11 0 -14 -3 -6 -6z"/>
<path d="M2590 1280 c0 -9 -10 -11 -32 -7 l-33 6 30 -14 c26 -11 31 -11 38 2
5 8 6 17 3 20 -3 4 -6 1 -6 -7z"/>
<path d="M520 1260 c-12 -8 -11 -10 7 -10 12 0 25 5 28 10 8 13 -15 13 -35 0z"/>
<path d="M258 1233 c7 -3 16 -2 19 1 4 3 -2 6 -13 5 -11 0 -14 -3 -6 -6z"/>
<path d="M350 1219 c0 -5 5 -7 10 -4 6 3 10 8 10 11 0 2 -4 4 -10 4 -5 0 -10
-5 -10 -11z"/>
<path d="M496 1221 c-3 -4 6 -13 20 -20 32 -14 31 -14 37 9 6 22 -18 29 -26 8
-4 -10 -6 -10 -6 0 -1 14 -17 16 -25 3z"/>
<path d="M568 1203 c7 -3 16 -2 19 1 4 3 -2 6 -13 5 -11 0 -14 -3 -6 -6z"/>
<path d="M2122 1185 c-26 -30 -30 -57 -4 -29 16 17 36 54 28 54 -1 0 -12 -11
-24 -25z"/>
<path d="M2018 1169 c-9 -17 -13 -41 -10 -52 3 -12 7 -16 10 -9 2 6 11 12 20
12 14 0 14 2 3 9 -11 7 -11 10 1 17 11 7 12 13 3 32 l-12 23 -15 -32z"/>
<path d="M420 1179 c0 -5 5 -7 10 -4 6 3 10 8 10 11 0 2 -4 4 -10 4 -5 0 -10
-5 -10 -11z"/>
<path d="M2516 1095 c-11 -8 -15 -15 -9 -15 6 0 16 7 23 15 16 19 11 19 -14 0z"/>
<path d="M430 1075 c-7 -9 -11 -17 -9 -20 3 -2 10 5 17 15 14 24 10 26 -8 5z"/>
<path d="M2039 1076 c-27 -11 -29 -36 -3 -36 9 0 13 4 9 9 -3 6 3 14 12 20 26
14 12 20 -18 7z"/>
<path d="M2380 1060 c0 -5 5 -10 11 -10 5 0 7 5 4 10 -3 6 -8 10 -11 10 -2 0
-4 -4 -4 -10z"/>
<path d="M2086 1031 c-3 -5 3 -11 13 -14 14 -3 18 -1 14 9 -6 16 -19 18 -27 5z"/>
<path d="M2581 1016 c-6 -7 -22 -12 -36 -10 -14 1 -23 -2 -19 -8 3 -5 9 -7 12
-4 3 3 10 2 16 -3 7 -6 17 0 29 15 19 25 17 34 -2 10z"/>
<path d="M367 1007 c-27 -11 -25 -12 30 -13 32 -1 48 1 36 3 -13 2 -23 9 -23
14 0 12 -8 11 -43 -4z"/>
<path d="M2181 933 c-1 -7 -9 -12 -18 -10 -10 1 -19 -2 -20 -8 -1 -5 8 -8 20
-7 28 5 30 8 24 24 -4 10 -6 10 -6 1z"/>
<path d="M2535 870 c-3 -5 -2 -10 4 -10 5 0 13 5 16 10 3 6 2 10 -4 10 -5 0
-13 -4 -16 -10z"/>
<path d="M2495 847 c-24 -18 -11 -37 23 -36 24 2 24 2 5 6 -26 5 -29 13 -11
31 16 16 6 15 -17 -1z"/>
<path d="M198 773 c7 -3 16 -2 19 1 4 3 -2 6 -13 5 -11 0 -14 -3 -6 -6z"/>
<path d="M2410 660 c-13 -8 -12 -10 3 -10 9 0 17 5 17 10 0 12 -1 12 -20 0z"/>
<path d="M2330 630 c0 -11 4 -20 9 -20 5 0 7 9 4 20 -3 11 -7 20 -9 20 -2 0
-4 -9 -4 -20z"/>
<path d="M2405 630 c-3 -5 1 -10 10 -10 9 0 13 5 10 10 -3 6 -8 10 -10 10 -2
0 -7 -4 -10 -10z"/>
<path d="M2518 613 c7 -3 16 -2 19 1 4 3 -2 6 -13 5 -11 0 -14 -3 -6 -6z"/>
<path d="M2558 603 c7 -3 16 -2 19 1 4 3 -2 6 -13 5 -11 0 -14 -3 -6 -6z"/>
<path d="M2365 590 c-3 -5 -1 -10 4 -10 6 0 11 5 11 10 0 6 -2 10 -4 10 -3 0
-8 -4 -11 -10z"/>
<path d="M2430 589 c0 -5 -6 -7 -12 -3 -10 5 -10 4 -1 -6 6 -7 16 -9 22 -6 14
9 14 26 1 26 -5 0 -10 -5 -10 -11z"/>
<path d="M2211 586 c11 -9 69 -15 64 -6 -3 6 -20 10 -37 10 -17 0 -29 -2 -27
-4z"/>
<path d="M2543 558 c-2 -18 0 -20 7 -8 12 18 13 30 2 30 -4 0 -9 -10 -9 -22z"/>
<path d="M2578 573 c7 -3 16 -2 19 1 4 3 -2 6 -13 5 -11 0 -14 -3 -6 -6z"/>
<path d="M2310 548 c0 -4 7 -8 15 -8 8 0 15 4 15 8 0 5 -7 9 -15 9 -8 0 -15
-4 -15 -9z"/>
<path d="M2400 550 c-13 -8 -12 -10 3 -10 9 0 17 5 17 10 0 12 -1 12 -20 0z"/>
<path d="M18 523 c12 -2 32 -2 45 0 12 2 2 4 -23 4 -25 0 -35 -2 -22 -4z"/>
<path d="M2507 519 c7 -7 15 -10 18 -7 3 3 -2 9 -12 12 -14 6 -15 5 -6 -5z"/>
<path d="M2185 501 c-3 -6 3 -9 12 -9 10 0 25 -2 34 -6 11 -5 19 -1 23 10 5
14 4 15 -9 4 -10 -8 -15 -9 -15 -1 0 13 -36 15 -45 2z"/>
<path d="M2270 480 c-12 -8 -9 -10 13 -10 16 0 26 4 22 10 -8 12 -16 12 -35 0z"/>
<path d="M109 469 c-20 -12 -8 -16 26 -9 27 5 28 6 9 12 -12 3 -28 2 -35 -3z"/>
<path d="M2460 470 c0 -5 5 -10 10 -10 6 0 10 5 10 10 0 6 -4 10 -10 10 -5 0
-10 -4 -10 -10z"/>
<path d="M2290 420 c0 -11 2 -20 5 -20 2 0 9 9 15 20 9 16 8 20 -5 20 -8 0
-15 -9 -15 -20z"/>
<path d="M200 410 c-13 -8 -12 -10 3 -10 9 0 17 5 17 10 0 12 -1 12 -20 0z"/>
<path d="M62 360 c0 -14 2 -19 5 -12 2 6 2 18 0 25 -3 6 -5 1 -5 -13z"/>
<path d="M305 340 c-3 -5 -2 -10 4 -10 5 0 13 5 16 10 3 6 2 10 -4 10 -5 0
-13 -4 -16 -10z"/>
<path d="M340 340 c0 -5 5 -10 11 -10 5 0 7 5 4 10 -3 6 -8 10 -11 10 -2 0 -4
-4 -4 -10z"/>
<path d="M258 333 c7 -3 16 -2 19 1 4 3 -2 6 -13 5 -11 0 -14 -3 -6 -6z"/>
<path d="M340 310 c-18 -12 -2 -12 25 0 13 6 15 9 5 9 -8 0 -22 -4 -30 -9z"/>
<path d="M2587 286 c-3 -8 -3 -30 0 -48 4 -26 -1 -41 -19 -64 -22 -27 -48
-110 -48 -155 0 -16 7 -19 40 -19 l40 0 0 150 c0 83 -2 150 -4 150 -2 0 -6 -6
-9 -14z"/>
<path d="M2480 281 c0 -5 5 -13 10 -16 6 -3 10 -2 10 4 0 5 -4 13 -10 16 -5 3
-10 2 -10 -4z"/>
<path d="M335 260 c-3 -6 1 -7 9 -4 18 7 21 14 7 14 -6 0 -13 -4 -16 -10z"/>
<path d="M2043 257 c1 -35 -4 -48 -19 -45 -10 2 -19 -2 -21 -8 -2 -7 5 -10 20
-7 14 3 28 0 31 -6 4 -6 12 -11 19 -11 8 0 8 3 -1 12 -7 7 -12 24 -12 39 0 15
-4 30 -9 33 -5 3 -9 0 -8 -7z"/>
<path d="M2156 247 c3 -10 9 -15 12 -12 3 3 0 11 -7 18 -10 9 -11 8 -5 -6z"/>
<path d="M2495 220 c3 -5 11 -10 16 -10 6 0 7 5 4 10 -3 6 -11 10 -16 10 -6 0
-7 -4 -4 -10z"/>
<path d="M2168 193 c6 -2 18 -2 25 0 6 3 1 5 -13 5 -14 0 -19 -2 -12 -5z"/>
<path d="M1960 180 c0 -5 5 -10 11 -10 5 0 7 5 4 10 -3 6 -8 10 -11 10 -2 0
-4 -4 -4 -10z"/>
<path d="M1895 170 c-3 -6 1 -7 9 -4 18 7 21 14 7 14 -6 0 -13 -4 -16 -10z"/>
<path d="M430 160 c-11 -7 -6 -10 20 -10 26 0 31 3 20 10 -8 5 -17 10 -20 10
-3 0 -12 -5 -20 -10z"/>
<path d="M496 161 c-3 -4 6 -6 19 -3 14 2 25 6 25 8 0 8 -39 4 -44 -5z"/>
<path d="M2510 155 c7 -9 15 -13 17 -11 7 7 -7 26 -19 26 -6 0 -6 -6 2 -15z"/>
<path d="M1855 150 c-3 -5 1 -10 10 -10 9 0 13 5 10 10 -3 6 -8 10 -10 10 -2
0 -7 -4 -10 -10z"/>
<path d="M1960 150 c0 -5 5 -10 10 -10 6 0 10 5 10 10 0 6 -4 10 -10 10 -5 0
-10 -4 -10 -10z"/>
<path d="M2473 126 c4 -10 7 -22 7 -27 0 -5 8 -9 18 -8 10 0 12 3 5 6 -7 2
-13 11 -13 18 0 8 -5 17 -12 21 -8 5 -9 2 -5 -10z"/>
<path d="M458 123 c7 -3 16 -2 19 1 4 3 -2 6 -13 5 -11 0 -14 -3 -6 -6z"/>
<path d="M1789 109 c16 -6 28 -6 35 1 7 7 -1 10 -24 9 -33 0 -34 -1 -11 -10z"/>
<path d="M1880 116 c0 -9 40 -13 46 -5 3 5 -6 9 -20 9 -14 0 -26 -2 -26 -4z"/>
<path d="M2129 103 c-13 -16 -12 -17 4 -4 16 13 21 21 13 21 -2 0 -10 -8 -17
-17z"/>
<path d="M308 103 c7 -3 16 -2 19 1 4 3 -2 6 -13 5 -11 0 -14 -3 -6 -6z"/>
<path d="M340 106 c0 -2 7 -7 16 -10 8 -3 12 -2 9 4 -6 10 -25 14 -25 6z"/>
<path d="M420 100 c-23 -5 -27 -8 -12 -9 25 -1 31 -21 6 -21 -8 0 -12 -5 -9
-11 5 -7 15 -3 29 10 12 12 31 21 42 21 16 0 17 2 4 10 -8 5 -17 9 -20 9 -3
-1 -21 -5 -40 -9z"/>
<path d="M1757 93 c-3 -5 9 -9 26 -10 26 -1 28 0 12 7 -26 11 -33 12 -38 3z"/>
<path d="M2445 80 c-3 -6 1 -7 9 -4 18 7 21 14 7 14 -6 0 -13 -4 -16 -10z"/>
<path d="M1560 60 c0 -6 7 -10 15 -10 8 0 15 2 15 4 0 2 -7 6 -15 10 -8 3 -15
1 -15 -4z"/>
<path d="M1740 60 c-12 -8 -11 -10 5 -10 17 0 17 -2 5 -10 -8 -5 -10 -10 -4
-10 5 0 19 7 30 16 10 8 13 12 5 8 -7 -3 -16 -2 -20 4 -4 7 -12 8 -21 2z"/>
<path d="M1840 60 c-13 -8 -12 -10 3 -10 10 0 15 -4 12 -10 -4 -6 1 -7 11 -3
11 4 13 8 6 11 -7 2 -10 8 -6 13 7 12 -7 11 -26 -1z"/>
<path d="M2470 51 c0 -12 28 -22 35 -12 3 5 -2 12 -11 15 -21 8 -24 8 -24 -3z"/>
<path d="M1700 39 c0 -5 5 -7 10 -4 6 3 10 8 10 11 0 2 -4 4 -10 4 -5 0 -10
-5 -10 -11z"/>
<path d="M2090 18 c-12 -22 -12 -22 6 -6 10 10 15 20 12 24 -4 3 -12 -5 -18
-18z"/>
<path d="M458 13 c6 -2 18 -2 25 0 6 3 1 5 -13 5 -14 0 -19 -2 -12 -5z"/>
<path d="M1230 16 c0 -2 7 -7 16 -10 8 -3 12 -2 9 4 -6 10 -25 14 -25 6z"/>
<path d="M1590 10 c0 -5 5 -10 10 -10 6 0 10 5 10 10 0 6 -4 10 -10 10 -5 0
-10 -4 -10 -10z"/>
</g>
</svg>
